<svg width="174" height="24" viewBox="0 0 174 24" fill="none" xmlns="http://www.w3.org/2000/svg">
<path d="M23.2497 1.09747C20.4483 -0.653081 16.7605 -0.237097 13.4766 1.83077C10.1931 -0.23638 6.50633 -0.652797 3.70533 1.09747C-0.720244 3.86287 -1.25774 10.986 2.50483 17.0073C5.27909 21.4471 9.61643 24.0477 13.4777 23.9993C17.3388 24.0476 21.676 21.447 24.4502 17.0073C28.2127 10.986 27.6753 3.86287 23.2497 1.09747ZM4.53898 15.7363C3.74734 14.4694 3.16311 13.1316 2.80253 11.7601C2.46274 10.4679 2.33618 9.20679 2.42634 8.01191C2.59418 5.78749 3.49983 4.05431 4.97641 3.13162C6.45299 2.20895 8.40773 2.15477 10.4806 2.97902C10.7927 3.10312 11.1015 3.24742 11.4072 3.40676C10.3024 4.40792 9.28721 5.61106 8.42375 6.99289C6.13711 10.6523 5.44159 14.717 6.23883 17.9648C5.61393 17.2904 5.04459 16.5454 4.53898 15.7363ZM24.1525 11.7601C23.7919 13.1316 23.2077 14.4694 22.416 15.7363C21.9105 16.5453 21.3413 17.2901 20.7165 17.9644C21.4298 15.0571 20.947 11.4955 19.1972 8.15559C19.0741 7.92066 18.7899 7.84289 18.565 7.98344L13.1159 11.3884C12.9073 11.5188 12.8438 11.7936 12.9742 12.0023L13.7731 13.2808C13.9035 13.4895 14.1783 13.5529 14.387 13.4226L17.9187 11.2157C18.037 11.5548 18.1432 11.8963 18.2336 12.2402C18.5734 13.5324 18.6999 14.7935 18.6098 15.9884C18.4419 18.2128 17.5363 19.946 16.0597 20.8687C15.3223 21.3295 14.4655 21.5736 13.5344 21.5999C13.5141 21.5997 13.4936 21.6004 13.4734 21.6C13.456 21.6003 13.4384 21.5997 13.421 21.5999C12.4897 21.5736 11.6329 21.3295 10.8953 20.8687C9.41873 19.946 8.5131 18.2128 8.34525 15.9884C8.25508 14.7935 8.38165 13.5324 8.72143 12.2401C9.08201 10.8686 9.66623 9.53088 10.4579 8.26399C11.2495 6.99709 12.1958 5.88556 13.2704 4.96022C14.2829 4.08836 15.3609 3.42179 16.4744 2.97902C18.5473 2.15475 20.502 2.20894 21.9786 3.13162C23.4552 4.05429 24.3608 5.78747 24.5287 8.01189C24.6188 9.20678 24.4923 10.4679 24.1525 11.7601Z" fill="#111111"/>
<path d="M52.2713 9.08957C55.1559 9.08957 57.4713 11.3265 57.4713 14.1717C57.4713 16.9974 55.1559 19.1951 52.2713 19.1951C49.4063 19.1951 47.0909 16.9974 47.0909 14.1717C47.0909 11.3265 49.4063 9.08957 52.2713 9.08957ZM52.2713 16.5408C53.6115 16.5408 54.6166 15.4726 54.6166 14.1521C54.6166 12.8315 53.6115 11.744 52.2713 11.744C50.9507 11.744 49.9456 12.8315 49.9456 14.1521C49.9456 15.4726 50.9507 16.5408 52.2713 16.5408ZM71.0816 12.0329C71.0816 16.1144 68.1502 18.9205 63.9313 18.9205H58.6602C58.4052 18.9205 58.2286 18.7242 58.2286 18.4692V5.61637C58.2286 5.38068 58.4052 5.18455 58.6602 5.18455H63.9313C68.1502 5.18455 71.0816 7.93182 71.0816 12.0329ZM68.0007 12.0329C68.0007 9.63897 66.3917 7.89248 64.0566 7.89248H61.172V16.2125H64.0566C66.3917 16.2125 68.0007 14.3877 68.0007 12.0329ZM76.4349 9.0896C77.7106 9.0896 78.7308 9.63898 79.1821 10.3846V9.796C79.1821 9.56053 79.398 9.36418 79.5944 9.36418H81.5762C81.8117 9.36418 81.9882 9.56053 81.9882 9.796V18.5085C81.9882 18.744 81.8117 18.9205 81.5762 18.9205H79.5944C79.3785 18.9205 79.1821 18.744 79.1821 18.5085V17.9001C78.7308 18.6459 77.6908 19.1951 76.4154 19.1951C73.943 19.1951 71.647 17.2133 71.647 14.1325C71.647 11.0321 73.9626 9.0896 76.4349 9.0896ZM76.9653 16.5602C78.2789 16.5602 79.2639 15.552 79.2639 14.1522C79.2639 12.7525 78.2789 11.7442 76.9653 11.7442C75.6518 11.7442 74.667 12.7524 74.667 14.1522C74.667 15.552 75.6521 16.5602 76.9653 16.5602ZM87.5019 9.08955C88.797 9.08955 89.8368 9.63905 90.2882 10.3455V5.59666C90.2882 5.36108 90.4846 5.18463 90.7198 5.18463H92.7019C92.9373 5.18463 93.1139 5.3611 93.1139 5.59666V18.5086C93.1139 18.744 92.9373 18.9205 92.7019 18.9205H90.7198C90.5041 18.9205 90.3079 18.744 90.3079 18.5086V17.9002C89.7779 18.6459 88.8164 19.1952 87.541 19.1952C85.0685 19.1952 82.7727 17.2134 82.7727 14.1326C82.7727 11.0321 85.0489 9.08955 87.5019 9.08955ZM88.0912 16.5854C89.3987 16.5854 90.3795 15.5666 90.3795 14.1522C90.3795 12.7377 89.3987 11.7189 88.0912 11.7189C86.7837 11.7189 85.8027 12.7378 85.8027 14.1522C85.8027 15.5665 86.7834 16.5854 88.0912 16.5854ZM98.6277 9.08955C99.9228 9.08955 100.963 9.63905 101.414 10.3455V5.59666C101.414 5.36108 101.61 5.18463 101.846 5.18463H103.828C104.063 5.18463 104.24 5.3611 104.24 5.59666V18.5086C104.24 18.744 104.063 18.9205 103.828 18.9205H101.846C101.63 18.9205 101.434 18.744 101.434 18.5086V17.9002C100.904 18.6459 99.9423 19.1952 98.6669 19.1952C96.1943 19.1952 93.8985 17.2134 93.8985 14.1326C93.8985 11.0321 96.1747 9.08955 98.6277 9.08955ZM99.217 16.5854C100.525 16.5854 101.505 15.5666 101.505 14.1522C101.505 12.7377 100.525 11.7189 99.217 11.7189C97.9095 11.7189 96.9286 12.7378 96.9286 14.1522C96.9286 15.5665 97.9092 16.5854 99.217 16.5854ZM114.303 9.36423H112.326C112.012 9.36423 111.855 9.58015 111.796 9.81562L109.971 16.641L108.016 9.81562C107.904 9.45193 107.726 9.36423 107.471 9.36423H105.386C104.896 9.36423 104.806 9.69793 104.904 10.0315L107.549 18.5086C107.627 18.744 107.784 18.9205 108.079 18.9205H109.276L109.022 19.762C108.772 20.4891 108.305 20.6848 107.695 20.6848C107.173 20.6848 106.83 20.4787 106.461 20.2397C106.319 20.1478 106.209 20.1044 106.071 20.1044C105.893 20.1044 105.77 20.1844 105.604 20.4292L105.017 21.3088C104.903 21.491 104.841 21.5913 104.841 21.7859C104.841 22.0982 105.153 22.2937 105.527 22.5074C106.17 22.8751 106.991 23.0588 107.892 23.0588C109.873 23.0588 111.149 21.9797 111.718 20.1747L114.676 10.0315C114.813 9.63902 114.696 9.36423 114.303 9.36423ZM43.8124 17.0457C42.7737 18.3578 40.9679 19.1831 38.9253 19.1831C35.0897 19.1831 32.0912 16.2981 32.0912 12.1899C32.0912 7.92028 35.3276 4.97745 39.4163 4.97745C42.4342 4.97745 44.8479 6.2755 45.9186 8.88583C45.9521 8.97098 45.9682 9.039 45.9682 9.10352C45.9682 9.22768 45.8869 9.32092 45.6266 9.41155L43.7155 10.1475C43.5685 10.1971 43.4438 10.194 43.3538 10.1528C43.2558 10.1079 43.1962 10.0173 43.1256 9.89122C42.4456 8.58808 41.2205 7.70193 39.3427 7.70193C36.9064 7.70193 35.1624 9.605 35.1624 12.0711C35.1624 14.4617 36.6494 16.4274 39.4118 16.4274C40.866 16.4274 42.0256 15.7396 42.5663 14.9894H40.8411C40.5879 14.9894 40.3933 14.7947 40.3933 14.5416V13.0695C40.3933 12.8164 40.5879 12.6217 40.8411 12.6217H45.8957C46.1489 12.6217 46.3436 12.7969 46.3436 13.05V18.4684C46.3436 18.7215 46.1489 18.9162 45.8957 18.9162H44.2602C44.0071 18.9162 43.8124 18.7215 43.8124 18.4684V17.0457Z" fill="#111111"/>
<path d="M119.432 12.0435C119.432 7.81095 121.743 5.01517 125.83 5.01517C128.596 5.01517 130.48 6.24812 131.499 8.72352L130.023 9.32544C129.295 7.35478 127.907 6.4617 125.83 6.4617C122.781 6.4617 121.102 8.5585 121.102 11.9756C121.102 15.3247 122.646 17.6156 125.781 17.6156C128.752 17.6156 130.159 15.4994 130.159 13.4414V13.1405H126.82V11.7911H131.683V18.9068H130.392L130.266 16.5575C129.392 18.1884 127.771 19.0718 125.674 19.0718C121.82 19.0718 119.432 16.4314 119.432 12.0435Z" fill="#111111"/>
<path d="M133.41 15.315V9.19916H134.944V15.1111C134.944 16.8293 135.817 17.703 137.215 17.703C138.798 17.703 139.807 16.7225 139.807 14.8782V9.19916H141.341V18.9068H139.807V17.3827C139.098 18.5379 138.03 19.0718 136.798 19.0718C134.72 19.0718 133.41 17.7322 133.41 15.315Z" fill="#111111"/>
<path d="M143.116 6.08046C143.116 5.5465 143.544 5.09995 144.087 5.09995C144.631 5.09995 145.067 5.54648 145.067 6.08046C145.067 6.61445 144.631 7.05123 144.087 7.05123C143.544 7.05123 143.116 6.61431 143.116 6.08046ZM143.32 9.20625H144.854V18.9139H143.32V9.20625Z" fill="#111111"/>
<path d="M153.799 18.9139V17.1471C153.139 18.4091 151.974 19.0789 150.499 19.0789C147.868 19.0789 146.324 16.8946 146.324 14.0601C146.324 11.2158 147.868 9.04126 150.508 9.04126C151.964 9.04126 153.139 9.69165 153.799 10.9828V5.18741H155.343V18.9139L153.799 18.9139ZM153.925 14.0504C153.925 11.9827 152.799 10.4004 150.867 10.4004C148.945 10.4004 147.936 12.002 147.936 14.0601C147.936 16.1182 148.945 17.7199 150.867 17.7199C152.799 17.7199 153.925 16.1375 153.925 14.0504Z" fill="#111111"/>
<path d="M156.826 14.1086C156.826 11.0896 158.642 9.04126 161.302 9.04126C164.156 9.04126 165.544 11.2255 165.544 13.6038C165.544 13.9242 165.515 14.1863 165.466 14.4581H158.447C158.593 16.6423 159.768 17.6907 161.496 17.6907C162.602 17.6907 163.399 17.3509 164.204 16.4773L165.272 17.4286C164.194 18.5741 163.049 19.0789 161.457 19.0789C158.622 19.0789 156.826 17.118 156.826 14.1086ZM158.467 13.3126H164.02C163.981 11.5167 162.942 10.3615 161.272 10.3615C159.826 10.3615 158.671 11.3614 158.467 13.3126Z" fill="#111111"/>
<path d="M166.32 16.6658L167.572 15.996C168.097 17.2094 169.009 17.7919 170.281 17.7919C171.611 17.7919 172.329 17.1997 172.329 16.3454C172.329 13.7147 166.767 15.4815 166.767 11.6955C166.767 10.1714 168.029 9.06476 170.096 9.06476C171.766 9.06476 172.98 9.79284 173.649 11.0645L172.416 11.744C171.989 10.8898 171.252 10.3364 170.096 10.3364C168.912 10.3364 168.252 10.8607 168.252 11.5985C168.252 13.9282 173.853 12.4139 173.853 16.1707C173.853 18.0443 172.358 19.1024 170.281 19.1024C168.242 19.1024 166.951 18.2093 166.32 16.6658Z" fill="#111111"/>
</svg>
